<?xml version="1.0" encoding="utf-8"?>
<!-- Generator: Adobe Illustrator 19.0.0, SVG Export Plug-In . SVG Version: 6.00 Build 0)  -->
<svg version="1.1" id="Capa_1" xmlns="http://www.w3.org/2000/svg" xmlns:xlink="http://www.w3.org/1999/xlink" x="0px" y="0px"
	 viewBox="0 0 128 128" style="enable-background:new 0 0 128 128;" xml:space="preserve">
<style type="text/css">
	.st0{fill:#FFFFFF;}
	.st1{fill:#223380;}
</style>
<g id="XMLID_1_">
	<circle id="XMLID_18_" class="st0" cx="64" cy="64" r="64"/>
</g>
<g id="XMLID_9_">
	<path id="XMLID_10_" class="st1" d="M93.3,92c2.3,10.7-9.1,13-14.1,11.6c-5-1.4-15.2-1.6-15.2-1.6s-10.2,0.2-15.2,1.6
		c-5,1.4-16.3-0.9-14.1-11.6C37,81.4,47,81.8,49.7,67.5C52.5,53.1,64,54,64,54s11.5-0.9,14.3,13.5C81,81.8,91,81.4,93.3,92z
		 M74.5,53.1c6.1,1.8,12.9-3.1,15.2-11.1c2.2-7.9-0.9-15.8-7.1-17.6c-6.1-1.8-12.9,3.1-15.2,11.1C65.2,43.4,68.4,51.3,74.5,53.1z
		 M100,50.2c-5.9-2.5-13.2,1.7-16.2,9.4c-3,7.6-0.7,15.8,5.2,18.3c5.9,2.5,13.2-1.7,16.2-9.4C108.2,60.8,105.9,52.7,100,50.2z
		 M53.5,53.1c6.1-1.8,9.3-9.7,7.1-17.6c-2.2-7.9-9-12.9-15.2-11.1c-6.1,1.8-9.3,9.7-7.1,17.6C40.6,49.9,47.3,54.9,53.5,53.1z
		 M39.1,77.8c5.9-2.5,8.2-10.7,5.2-18.3c-3-7.6-10.3-11.8-16.2-9.4c-5.9,2.5-8.2,10.7-5.2,18.3C25.9,76.1,33.2,80.3,39.1,77.8z"/>
</g>
</svg>
