<?xml version="1.0" encoding="utf-8"?>
<!-- Generator: Adobe Illustrator 19.0.0, SVG Export Plug-In . SVG Version: 6.00 Build 0)  -->
<svg version="1.1" id="Capa_1" xmlns="http://www.w3.org/2000/svg" xmlns:xlink="http://www.w3.org/1999/xlink" x="0px" y="0px"
	 viewBox="0 0 128 128" style="enable-background:new 0 0 128 128;" xml:space="preserve">
<style type="text/css">
	.st0{fill:#FFFFFF;}
	.st1{fill:none;stroke:#263588;stroke-width:1.5;stroke-miterlimit:10;}
	.st2{fill:none;stroke:#263588;stroke-miterlimit:10;}
	.st3{fill:none;stroke:#263588;stroke-width:3;stroke-linecap:round;stroke-miterlimit:10;}
</style>
<g id="XMLID_1_">
	<circle id="XMLID_18_" class="st0" cx="64" cy="64" r="64"/>
</g>
<path id="XMLID_4_" class="st1" d="M98.3,80.3c-1,7.6-4.3,14.4-9.2,19.7c-0.7,0.8-1.5,1.5-2.3,2.2c-6.1,5.5-14.1,8.8-22.8,8.8
	c-9.8,0-18.7-4.2-25-11c-4.9-5.2-8.2-12-9.2-19.7"/>
<path id="XMLID_58_" class="st1" d="M48.1,20.6c3-1,6.2-1.6,9.6-1.6h12.6c3.3,0,6.5,0.6,9.5,1.6"/>
<ellipse id="XMLID_57_" class="st1" cx="49.3" cy="58.8" rx="3.8" ry="3.9"/>
<ellipse id="XMLID_56_" class="st2" cx="49.3" cy="59.5" rx="1.2" ry="1.3"/>
<ellipse id="XMLID_54_" class="st1" cx="79.2" cy="58.8" rx="3.8" ry="3.9"/>
<ellipse id="XMLID_53_" class="st2" cx="79.2" cy="59.5" rx="1.2" ry="1.3"/>
<path id="XMLID_50_" class="st1" d="M89,100c-0.7,0.8-1.5,1.5-2.3,2.2c-6.1,5.5-14.1,8.8-22.8,8.8c-9.8,0-18.7-4.2-25-11
	C39,85.4,54,72.2,57.9,70.7c4.4-1.8,3.7-20,3.2-27.4c0-0.1,0-0.1,0-0.2c0-1.6-1.7-20.7,2.9-20.7s3,19.2,2.9,20.9
	c-0.5,7.4-1.2,25.6,3.2,27.4C74,72.2,89,85.4,89,100z"/>
<path id="XMLID_49_" class="st1" d="M64,92.5L64,92.5c-4.8,0-8.8-4-8.8-8.9l0,0c0-0.7,0.5-1.2,1.2-1.2h15.1c0.7,0,1.2,0.6,1.2,1.2
	l0,0C72.8,88.5,68.8,92.5,64,92.5z"/>
<path id="XMLID_48_" class="st1" d="M66.6,85.4h-5.2c-1.6,0-3-1.4-3-3l0,0h11.1l0,0C69.5,84,68.2,85.4,66.6,85.4z"/>
<g id="XMLID_42_">
	<path id="XMLID_47_" class="st3" d="M44.9,93.9c0,0,5.1,9.4,19.2,0"/>
	<path id="XMLID_46_" class="st3" d="M83.1,93.9c0,0-5.1,9.4-19.2,0"/>
</g>
<g id="XMLID_14_">
	<g id="XMLID_37_">
		<path id="XMLID_40_" class="st1" d="M48.1,21.1c-7.6,12.2-19.2,48.1-18.3,62.1c1,15.1-5.4,13.6-4.8,5c0.2-2.6-0.3-4.3-1.3-5.8
			c-2.3-3.6-7.5-6.2-13.9-16.4C7,61.3,6.2,58.3,6.6,55.9c1-5.2,7.9-7.2,12.3-15.5c3.4-6.3,11.7-12,18.8-15.9
			c3.7-2.1,7.1-3.6,9.3-4.6c0.3-0.1,0.6-0.1,0.8,0.1C48.2,20.2,48.3,20.7,48.1,21.1z"/>
	</g>
	<g id="XMLID_15_">
		<path id="XMLID_29_" class="st1" d="M79.9,21.1c7.6,12.2,19.2,48.1,18.3,62.1c-1,15.1,5.4,13.6,4.8,5c-0.2-2.6,0.3-4.3,1.3-5.8
			c2.3-3.6,7.5-6.2,13.9-16.4c2.9-4.6,3.7-7.7,3.2-10.1c-1-5.2-7.9-7.2-12.3-15.5c-3.4-6.3-11.7-12-18.8-15.9
			c-3.7-2.1-7.1-3.6-9.3-4.6c-0.3-0.1-0.6-0.1-0.8,0.1C79.8,20.2,79.7,20.7,79.9,21.1z"/>
	</g>
</g>
</svg>
