<?xml version="1.0" encoding="utf-8"?>
<!-- Generator: Adobe Illustrator 19.0.0, SVG Export Plug-In . SVG Version: 6.00 Build 0)  -->
<svg version="1.1" id="Capa_1" xmlns="http://www.w3.org/2000/svg" xmlns:xlink="http://www.w3.org/1999/xlink" x="0px" y="0px"
	 viewBox="0 0 128 128" style="enable-background:new 0 0 128 128;" xml:space="preserve">
<style type="text/css">
	.st0{fill:#FFFFFF;}
	.st1{fill:#223380;}
</style>
<g id="XMLID_1_">
	<circle id="XMLID_18_" class="st0" cx="64" cy="64" r="64"/>
</g>
<path id="XMLID_6_" class="st1" d="M115.8,36.2c0.4-0.7,0-1.6-0.8-1.8c-0.5-0.2-0.9-0.3-1.3-0.5c-2.6-1-4.5-1.5-6.5-2.3
	c-2.4-0.9-1.7-3.4-3.9-4.5c-1.1-0.6-2.5-1-4-1.2c-0.6-0.1-1.3-0.2-1.9-0.2c-1.7-0.1-3.5-0.1-5,0.1c-1.5,0.2-2.8,1-3.7,2.1L85,29.7
	c-1.7,1.2-1.2,3.4-0.5,5.4c-2.7,3.3-5.3,6.4-7.8,8.9c-0.8,0.8-1.7,1.6-2.5,2.4h0c-0.3,0-0.6,0-1-0.1c-2.4-0.1-4.9,0.2-7.4,0.9
	c-0.3,0.1-0.7,0.2-1,0.2c-2.2,0.4-4.5,0.4-6.7,0.3c-0.8,0-1.6-0.1-2.4-0.1c-0.2,0-0.4,0-0.7,0C50.6,47.3,47.7,47,45,47
	c-0.5,0-1,0-1.5,0c-1.5,0-3.1,0.2-4.9,0.5h0c-0.1,0-0.1,0-0.2,0c-0.1,0-0.3,0-0.4,0c-0.7,0-1.4,0.1-2.1,0.1c-0.3,0-0.5,0-0.8,0
	c-1,0-2.1,0-3.2-0.1c-1.1-0.1-2.2-0.2-3.4-0.3c-0.6-0.1-1.1-0.2-1.7-0.3c-0.6-0.1-1.1-0.3-1.7-0.5c-2.2-0.7-4.3-1.8-6.1-3.2
	c-0.9-0.7-1.7-1.4-2.4-2.2l-0.3-0.3l-0.1-0.1l-0.1-0.2c-0.2-0.2-0.3-0.4-0.5-0.6c-0.3-0.4-0.6-0.8-0.8-1.2c-0.5-0.8-0.9-1.5-1.3-2.2
	c-0.4-0.7-0.7-1.3-0.9-1.8c-0.5-1-0.7-1.6-0.7-1.6s0.2,0.6,0.5,1.7c0.2,0.5,0.4,1.2,0.7,1.9c0.3,0.7,0.6,1.6,1,2.4
	c0.1,0.3,0.3,0.7,0.5,1c0,0,0,0,0,0c0.1,0.1,0.1,0.2,0.2,0.3c0.1,0.2,0.3,0.4,0.4,0.7l0.1,0.2l0.1,0.2l0.2,0.4
	c0.6,0.9,1.4,1.9,2.2,2.7c1.7,1.8,3.9,3.3,6.2,4.4c0.6,0.3,1.2,0.5,1.8,0.8c0.6,0.2,1.3,0.5,1.8,0.6c1.3,0.4,2.4,0.7,3.6,0.9
	c0.6,0.1,1.1,0.2,1.7,0.3c-0.1,0.2-0.2,0.3-0.2,0.5c-1.9,3.7-2.3,8.7-2.4,11.5c-0.2,1.4-0.4,2.8-0.7,4c-0.1,0.5-0.2,1-0.3,1.4v0
	c-0.1,0.2-0.1,0.4-0.2,0.6c-0.7,2.4-1.5,4.3-2.4,5.9l0,0c-2.5,4.5-5.2,6.1-5.2,6.1c0,0.3-1.6,7.4-2.7,12c-0.1,0.3-0.1,0.6-0.2,0.9
	l0,0c0,0-0.4,1.2-0.7,3.1c-0.3,2.1,1,4,2.1,4l2.2,0c1.7,0,2.2-1.9,1.4-3.2c-0.7-1.3-1.6-1.7-1.1-3.5l0,0l3.7-10.8l5-2.5l3.1-1.6
	c-0.2,0.5-0.3,0.9-0.5,1.3c-0.2,0.6-0.7,1.9-0.4,2.4c1.1,1.7,3.6,8.1,4.6,9.3c0.2,0.4,0.5,1,0.7,1.9c0.9,3.3,2.3,3.4,3.3,3.4
	l1.5,0.1c1.6,0,1.9-2.1,0.9-3.1c-0.9-0.9-2.2-1.6-3.5-3.5c-1.4-2.6-2.3-6-2.8-6.9c-0.2-0.4-0.2-0.9,0.1-1.3c1-1.4,1.7-1.1,3.5-2.8
	c4.5-4.5,7-8.8,9-12.4l0.7,0.2c0.9,0.2,1.5-0.2,1.6-1l0,0c0-0.4-0.1-0.8-0.3-1.1c3.6,1.5,6.8,3.2,8.8,3.9c4.5,1.4,7.8,2.5,10.3,3.1
	l-0.1,2.8l-0.3,12.9c0,0.4,1.1,5.2,1.7,7.4v0c0.1,0.9,0.8,5.7,3.1,5.7l2.1,0.1l0.9,0c1.1,0,1.7-0.4,2-0.9c0.4,0.5,0.9,0.8,1.5,0.8
	l3,0.2c2.7,0,2.3-2.2,1.4-3.7c-0.7-1.1-2-1.5-2.8-2.2l-1.1-3.8c-0.5-1.9-0.7-4-0.6-6.1l1.7-18.4c0.7-1.3,0.9-2.7,1.6-5
	c0.3-0.9,0.6-1.8,1-3l0.9-1.9l0.5-1l0.6-1.3c0,0,0,0,0,0l0.4-0.8l1.2-2.6c0,0,0,0,0,0l3.3-6.9c0.7-1,1.9-1.3,2.9-0.9
	c2.3,1,3.8,1.8,5.9,4c0.7,0.4,1.9,0.2,2.9-0.1c0.2-0.1,0.4-0.2,0.5-0.2l0.4-0.2c0.4-0.2,0.6-0.7,0.6-1.2c0,0.2,0.1,0.3,0.1,0.5
	c0,0.4-0.1,0.9-0.2,1.3c-0.1,0.4-0.2,0.9-0.1,1.3c0,0.1,0.1,0.3,0.2,0.4c0.2,0.2,0.5,0.1,0.7-0.1c0.1-0.1,0.3-0.2,0.4-0.3
	c0.1-0.1,0.2-0.2,0.3-0.3c0-0.1,0-0.2,0-0.3c0-0.4-0.1-0.9-0.1-1.3c0-0.4-0.1-0.8-0.2-1.1c-0.2-0.7-0.7-1.2-1.2-1.7
	c-0.2-0.2-0.4-0.3-0.6-0.4l0.1-0.2l-0.2,0.2c-0.3-0.2-0.7-0.4-1-0.6c-0.8-0.5-1.7-1-2.4-1.6c-0.3-0.2-0.6-0.4-0.9-0.6
	c-0.3-0.1-0.6-0.2-1-0.2c-0.1-0.1-0.3-0.3-0.4-0.4c-0.2-0.4-0.3-0.7-0.2-1.1c0-0.2,0.1-0.4,0.2-0.5l0,0c0.8-0.9,1.9-1.2,3-1l6.1,1.9
	c0.8,0.1,1.6-0.1,2.4-0.5c0.7-0.4,1.5-1,2.1-1.6c0.3-0.3,0.5-0.6,0.7-0.9c0.2-0.2,0.3-0.5,0.5-0.7l0.1-0.2L115.8,36.2z M77.9,96.6
	l-1.1-3.9c-0.5-1.8-0.6-3.8-0.3-5.7l1.2-7.2l0.3,9.4c0,0.5,0.1,1,0.2,1.5l1.4,5.9c0,0.2,0.1,0.6,0.2,1.2
	C79.1,97.3,78.4,97,77.9,96.6z"/>
</svg>
