<?xml version="1.0" encoding="utf-8"?>
<!-- Generator: Adobe Illustrator 19.0.0, SVG Export Plug-In . SVG Version: 6.00 Build 0)  -->
<svg version="1.1" id="Capa_1" xmlns="http://www.w3.org/2000/svg" xmlns:xlink="http://www.w3.org/1999/xlink" x="0px" y="0px"
	 viewBox="0 0 128 128" style="enable-background:new 0 0 128 128;" xml:space="preserve">
<style type="text/css">
	.st0{fill:#FFFFFF;}
	.st1{fill:#223380;}
</style>
<g id="XMLID_1_">
	<circle id="XMLID_18_" class="st0" cx="64" cy="64" r="64"/>
</g>
<g id="XMLID_19_">
	<g id="XMLID_20_">
		<path id="XMLID_21_" class="st1" d="M66.8,16.2c-1.5-1.7-4.1-1.7-5.6,0L20,61.5c-2.2,2.5-0.5,6.4,2.8,6.4h7.4l3.2,41.6
			c0.2,2,1.8,3.5,3.8,3.5h53.5c2,0,3.7-1.6,3.8-3.6l3-41.6h7.6c3.3,0,5.1-4,2.8-6.4L66.8,16.2z M82.7,105c0,0.9-0.7,1.6-1.6,1.6
			H46.9c-0.9,0-1.6-0.7-1.6-1.6V79.8c0-10.3,8.4-18.8,18.7-18.8h0c10.3,0,18.7,8.4,18.7,18.8L82.7,105L82.7,105z"/>
	</g>
</g>
</svg>
