<?xml version="1.0" encoding="utf-8"?>
<!-- Generator: Adobe Illustrator 19.0.0, SVG Export Plug-In . SVG Version: 6.00 Build 0)  -->
<svg version="1.1" id="Capa_1" xmlns="http://www.w3.org/2000/svg" xmlns:xlink="http://www.w3.org/1999/xlink" x="0px" y="0px"
	 viewBox="0 0 128 128" style="enable-background:new 0 0 128 128;" xml:space="preserve">
<style type="text/css">
	.st0{fill:#FFFFFF;}
	.st1{fill:#223380;}
</style>
<g id="XMLID_1_">
	<circle id="XMLID_18_" class="st0" cx="64" cy="64" r="64"/>
</g>
<g id="XMLID_14_">
	<path id="XMLID_15_" class="st1" d="M93.1,34.9c0.2-3.5-1.1-7-3.7-9.7c-5-5-13.1-5-18.2,0c-5,5-5,13.1,0,18.2
		c0.1,0.1,0.2,0.2,0.3,0.3L43.7,71.5c-0.1-0.1-0.2-0.2-0.3-0.3c-5-5-13.1-5-18.2,0c-5,5-5,13.1,0,18.2c2.6,2.6,6.2,3.9,9.7,3.7
		c-0.2,3.5,1.1,7,3.7,9.7c5,5,13.1,5,18.2,0c5-5,5-13.1,0-18.2c-0.1-0.1-0.2-0.2-0.3-0.3l27.8-27.8c0.1,0.1,0.2,0.2,0.3,0.3
		c5,5,13.1,5,18.2,0c5-5,5-13.1,0-18.2C100.1,36,96.6,34.8,93.1,34.9z"/>
</g>
</svg>
